<svg width="24" height="24" viewBox="0 0 24 24" fill="none" xmlns="http://www.w3.org/2000/svg">
<path d="M16 6.99998C16 6.4477 16.4477 5.99998 17 5.99998C17.5523 5.99998 18 6.4477 18 6.99998C18 7.55227 17.5523 7.99998 17 7.99998C16.4477 7.99998 16 7.55227 16 6.99998Z" fill="#14213D"/>
<path fill-rule="evenodd" clip-rule="evenodd" d="M12 7.24998C9.37665 7.24998 7.25 9.37663 7.25 12C7.25 14.6233 9.37665 16.75 12 16.75C14.6234 16.75 16.75 14.6233 16.75 12C16.75 9.37663 14.6234 7.24998 12 7.24998ZM8.75 12C8.75 10.2051 10.2051 8.74998 12 8.74998C13.7949 8.74998 15.25 10.2051 15.25 12C15.25 13.7949 13.7949 15.25 12 15.25C10.2051 15.25 8.75 13.7949 8.75 12Z" fill="#14213D"/>
<path fill-rule="evenodd" clip-rule="evenodd" d="M17.2583 2.833C13.7917 2.44556 10.2083 2.44556 6.74177 2.833C4.72971 3.05788 3.10538 4.64289 2.86883 6.66542C2.45429 10.2097 2.45429 13.7903 2.86883 17.3346C3.10538 19.3571 4.72971 20.9421 6.74177 21.167C10.2083 21.5544 13.7917 21.5544 17.2583 21.167C19.2703 20.9421 20.8946 19.3571 21.1312 17.3346C21.5457 13.7903 21.5457 10.2097 21.1312 6.66542C20.8946 4.64289 19.2703 3.05788 17.2583 2.833ZM6.90838 4.32372C10.2642 3.94865 13.7358 3.94865 17.0916 4.32372C18.4218 4.47238 19.4872 5.52199 19.6414 6.83967C20.0424 10.2682 20.0424 13.7318 19.6414 17.1603C19.4872 18.478 18.4218 19.5276 17.0916 19.6762C13.7358 20.0513 10.2642 20.0513 6.90838 19.6762C5.57827 19.5276 4.51278 18.478 4.35867 17.1603C3.95767 13.7318 3.95767 10.2682 4.35867 6.83967C4.51278 5.52199 5.57827 4.47238 6.90838 4.32372Z" fill="#14213D"/>
</svg>
