<svg width="32" height="32" viewBox="0 0 32 32" fill="none" xmlns="http://www.w3.org/2000/svg">
<path fill-rule="evenodd" clip-rule="evenodd" d="M15.2202 3.19352C15.7283 3.03734 16.2717 3.03734 16.7798 3.19352L20.7608 4.41708C22.8377 5.0554 24.8101 5.99389 26.6154 7.20276C28.0196 8.14301 27.3541 10.3333 25.6641 10.3333H6.33587C4.64594 10.3333 3.98034 8.14302 5.38455 7.20276C7.18992 5.99389 9.16232 5.05541 11.2392 4.41708L15.2202 3.19352ZM16.1923 5.10527C16.067 5.06676 15.933 5.06676 15.8077 5.10527L11.8267 6.32882C10.2523 6.81272 8.74388 7.48611 7.33426 8.33334H24.6657C23.2561 7.48611 21.7476 6.81272 20.1732 6.32882L16.1923 5.10527Z" fill="#14213D"/>
<path d="M5.66667 28C5.66667 27.4477 6.11438 27 6.66667 27H25.3333C25.8856 27 26.3333 27.4477 26.3333 28C26.3333 28.5523 25.8856 29 25.3333 29H6.66667C6.11438 29 5.66667 28.5523 5.66667 28Z" fill="#14213D"/>
<path d="M10.7071 23.5711C10.3166 23.9616 10.3166 24.5948 10.7071 24.9853C11.0976 25.3758 11.7308 25.3758 12.1213 24.9853L21.9853 15.1214C22.3758 14.7308 22.3758 14.0977 21.9853 13.7072C21.5948 13.3166 20.9616 13.3166 20.5711 13.7072L10.7071 23.5711Z" fill="#14213D"/>
<path d="M20.5711 24.9853C20.9616 25.3758 21.5948 25.3758 21.9853 24.9853C22.3758 24.5948 22.3758 23.9616 21.9853 23.5711L12.1213 13.7071C11.7308 13.3166 11.0976 13.3166 10.7071 13.7071C10.3166 14.0976 10.3166 14.7308 10.7071 15.1213L20.5711 24.9853Z" fill="#14213D"/>
</svg>
