<svg width="25" height="24" viewBox="0 0 25 24" fill="none" xmlns="http://www.w3.org/2000/svg">
<path fill-rule="evenodd" clip-rule="evenodd" d="M24.5 11.75C24.5 11.3358 24.1642 11 23.75 11H14.5C14.0858 11 13.75 11.3358 13.75 11.75C13.75 12.1642 14.0858 12.5 14.5 12.5H23.75C24.1642 12.5 24.5 12.1642 24.5 11.75Z" fill="#14213D"/>
<path fill-rule="evenodd" clip-rule="evenodd" d="M24.5 6.75C24.5 6.33579 24.1642 6 23.75 6H9.75C9.33579 6 9 6.33579 9 6.75C9 7.16421 9.33579 7.5 9.75 7.5H23.75C24.1642 7.5 24.5 7.16421 24.5 6.75Z" fill="#14213D"/>
<path fill-rule="evenodd" clip-rule="evenodd" d="M24.5 16.75C24.5 16.3358 24.1642 16 23.75 16H9.75C9.33579 16 9 16.3358 9 16.75C9 17.1642 9.33579 17.5 9.75 17.5H23.75C24.1642 17.5 24.5 17.1642 24.5 16.75Z" fill="#14213D"/>
</svg>
