<svg width="24" height="25" viewBox="0 0 24 25" fill="none" xmlns="http://www.w3.org/2000/svg">
<path fill-rule="evenodd" clip-rule="evenodd" d="M5.84027 10.414C7.62759 14.3059 10.8081 17.4001 14.7618 19.0767L14.7743 19.082L15.5381 19.4224C16.5108 19.8558 17.654 19.548 18.2776 18.6849L19.552 16.9212C19.6298 16.8134 19.6097 16.6636 19.5063 16.5802L17.2816 14.7854C17.171 14.6962 17.0083 14.7169 16.9237 14.8311L16.0579 15.9995C15.8476 16.2832 15.4678 16.3818 15.1461 16.2362C12.1897 14.8983 9.81396 12.5226 8.47603 9.56618C8.33041 9.24442 8.42901 8.86467 8.71276 8.65439L9.88114 7.78853C9.99531 7.70392 10.0161 7.5413 9.92686 7.4307L8.13182 5.20566C8.04839 5.10224 7.89865 5.08216 7.79092 5.15993L6.01762 6.44009C5.14883 7.06727 4.84288 8.22012 5.28634 9.19557L5.83968 10.4127C5.83988 10.4132 5.84008 10.4136 5.84027 10.414ZM14.1699 20.455C9.87391 18.6314 6.41854 15.2684 4.4765 11.0386L4.47533 11.0361L3.92083 9.81636C3.18173 8.19061 3.69165 6.2692 5.13964 5.22389L6.91293 3.94373C7.66705 3.39932 8.71528 3.53993 9.29927 4.26382L11.0943 6.48886C11.7189 7.26303 11.5734 8.40143 10.7742 8.99367L10.1047 9.48982C11.2357 11.6842 13.028 13.4766 15.2224 14.6075L15.7186 13.938C16.3108 13.1388 17.4492 12.9934 18.2234 13.6179L20.4481 15.4127C21.1722 15.9969 21.3127 17.0455 20.7678 17.7997L19.4934 19.5634C18.4541 21.0019 16.5487 21.5148 14.9277 20.7926L14.1699 20.455Z" fill="#14213D"/>
</svg>
