<svg width="24" height="24" viewBox="0 0 24 24" fill="none" xmlns="http://www.w3.org/2000/svg">
<path fill-rule="evenodd" clip-rule="evenodd" d="M11.1987 2.58722C11.697 2.31036 12.303 2.31036 12.8013 2.58722L20.0013 6.58722C20.5251 6.87823 20.85 7.43035 20.85 8.02958V15.9705C20.85 16.5697 20.5251 17.1218 20.0013 17.4128L12.8013 21.4128C12.303 21.6897 11.697 21.6897 11.1987 21.4128L3.99868 17.4128C3.47486 17.1218 3.14999 16.5697 3.14999 15.9705V8.02958C3.14999 7.43035 3.47487 6.87823 3.99868 6.58722L11.1987 2.58722ZM12.0728 3.89845C12.0275 3.87329 11.9725 3.87329 11.9271 3.89845L4.72715 7.89845C4.67953 7.92491 4.64999 7.9751 4.64999 8.02958V15.9705C4.64999 16.0249 4.67953 16.0751 4.72715 16.1016L11.9271 20.1016C11.9725 20.1267 12.0275 20.1267 12.0728 20.1016L19.2728 16.1016C19.3205 16.0751 19.35 16.0249 19.35 15.9705V8.02958C19.35 7.9751 19.3205 7.92491 19.2728 7.89845L12.0728 3.89845Z" fill="#14213D"/>
<path fill-rule="evenodd" clip-rule="evenodd" d="M7.24999 12C7.24999 9.37666 9.37664 7.25001 12 7.25001C14.6233 7.25001 16.75 9.37666 16.75 12C16.75 14.6234 14.6233 16.75 12 16.75C9.37664 16.75 7.24999 14.6234 7.24999 12ZM12 8.75001C10.2051 8.75001 8.74999 10.2051 8.74999 12C8.74999 13.7949 10.2051 15.25 12 15.25C13.7949 15.25 15.25 13.7949 15.25 12C15.25 10.2051 13.7949 8.75001 12 8.75001Z" fill="#14213D"/>
</svg>
