<svg width="24" height="24" viewBox="0 0 24 24" fill="none" xmlns="http://www.w3.org/2000/svg">
<path fill-rule="evenodd" clip-rule="evenodd" d="M13.1546 3.36026C12.4835 3.00999 11.5741 3.00459 10.8977 3.35396C8.30469 4.6931 5.95282 6.22853 3.89185 7.93154C3.57314 8.19489 3.34696 8.57758 3.35082 9.02802C3.35466 9.47662 3.58544 9.85419 3.90222 10.1132C5.94607 11.7844 8.29988 13.3212 10.8454 14.6497C11.5165 15 12.4259 15.0054 13.1024 14.656C15.6953 13.3169 18.0472 11.7815 20.1082 10.0785C20.4269 9.8151 20.6531 9.43242 20.6492 8.98197C20.6453 8.53338 20.4146 8.1558 20.0978 7.89679C18.0539 6.22562 15.7001 4.6888 13.1546 3.36026ZM11.586 4.68671C11.8256 4.56294 12.2193 4.56411 12.4606 4.69004C14.8899 5.95796 17.1283 7.41666 19.0676 8.99223C17.1168 10.5932 14.885 12.0471 12.4141 13.3233C12.1744 13.4471 11.7807 13.4459 11.5394 13.32C9.11007 12.052 6.87166 10.5933 4.93243 9.01777C6.88324 7.41684 9.11499 5.96285 11.586 4.68671Z" fill="#14213D"/>
<path d="M21.197 12.698C21.4164 13.0494 21.3094 13.512 20.958 13.7314L14.8508 17.5443C14.0221 18.0617 12.9939 18.3009 11.9999 18.301C11.006 18.301 9.97773 18.0619 9.14887 17.5446L3.10854 13.7749C2.75714 13.5556 2.65006 13.093 2.86937 12.7416C3.08867 12.3902 3.55132 12.2831 3.90271 12.5024L9.94304 16.2721C10.4872 16.6117 11.2264 16.801 11.9998 16.801C12.7733 16.8009 13.5124 16.6116 14.0564 16.2719L20.1637 12.459C20.515 12.2397 20.9777 12.3467 21.197 12.698Z" fill="#14213D"/>
<path d="M21.197 16.4527C21.4164 16.804 21.3094 17.2667 20.9581 17.4861L15.6692 20.7889C14.6116 21.4494 13.2886 21.7602 11.9999 21.7602C10.7112 21.7603 9.38811 21.4497 8.33033 20.7894L3.10846 17.5296C2.75709 17.3102 2.65007 16.8476 2.86942 16.4962C3.08876 16.1448 3.55142 16.0378 3.90279 16.2572L9.12465 19.517C9.89767 19.9995 10.9316 20.2603 11.9998 20.2602C13.068 20.2602 14.1018 19.9993 14.8747 19.5167L20.1636 16.2138C20.5149 15.9944 20.9776 16.1013 21.197 16.4527Z" fill="#14213D"/>
</svg>
