<svg width="24" height="24" viewBox="0 0 24 24" fill="none" xmlns="http://www.w3.org/2000/svg">
<path fill-rule="evenodd" clip-rule="evenodd" d="M15.0215 3.34346C15.5299 3.25638 16.0992 3.2273 16.6349 3.31795C17.5918 3.47983 18.4756 3.92456 19.1743 4.59132C19.631 4.60165 20.0798 4.51167 20.4769 4.38341C20.8131 4.27486 21.097 4.14379 21.2959 4.04015C21.3948 3.98862 21.4713 3.94466 21.5209 3.9149C21.5457 3.90005 21.5638 3.8888 21.5745 3.88201L21.584 3.87595C21.8808 3.67822 22.276 3.7167 22.5289 3.96821C22.7818 4.21977 22.8226 4.61469 22.6263 4.9126C22.4186 5.22789 22.1303 5.78996 21.8072 6.41972C21.7564 6.51874 21.7047 6.61943 21.6524 6.7211C21.4671 7.08107 21.2771 7.44488 21.1 7.75701C20.9888 7.953 20.8699 8.15197 20.75 8.32392V8.59769C20.7576 9.60332 20.6423 10.6037 20.4082 11.5769C20.2609 12.1893 20.0667 12.7909 19.8264 13.3762C19.204 14.8929 18.2856 16.2703 17.1249 17.4281C15.9641 18.5858 14.5844 19.5007 13.0661 20.1192C11.5492 20.7372 9.92444 21.047 8.28659 21.0306C5.91228 21.0326 3.58791 20.3486 1.59319 19.0607C1.29939 18.871 1.17569 18.5034 1.29503 18.1747C1.41437 17.8459 1.74506 17.6433 2.09213 17.6863C2.39249 17.7234 2.6949 17.7416 2.99756 17.7406C4.08501 17.7375 5.15174 17.4973 6.12561 17.0446C5.81606 16.9037 5.52052 16.73 5.24437 16.5252C4.43265 15.9233 3.82874 15.0833 3.51667 14.1222C3.43558 13.8724 3.49102 13.5985 3.66283 13.3999C3.66591 13.3963 3.66902 13.3928 3.67215 13.3893C3.48862 13.2257 3.3169 13.0475 3.1588 12.8558C2.44748 11.9936 2.05581 10.9122 2.05002 9.79447L2.05 9.79059L2.05001 9.74059C2.05001 9.47472 2.19077 9.22873 2.41997 9.09401C2.47807 9.05986 2.53965 9.03415 2.603 9.01691C2.26467 8.34183 2.08873 7.59638 2.09001 6.84012C2.08961 5.98336 2.31341 5.14139 2.73917 4.39789C2.86208 4.18325 3.08291 4.04301 3.32944 4.02304C3.57597 4.00306 3.8165 4.10591 3.97236 4.29796C4.93491 5.48397 6.1362 6.45423 7.49819 7.1457C8.19833 7.50115 8.93288 7.77885 9.68867 7.97528C10.1124 8.08541 10.5428 8.17 10.9776 8.22843C10.9584 7.50517 11.1013 6.7823 11.401 6.11437C11.8407 5.13454 12.5931 4.32837 13.5404 3.82227C13.9415 3.60794 14.474 3.43723 15.0215 3.34346ZM3.74329 10.891C3.87294 11.2558 4.0658 11.5982 4.31586 11.9013C4.80718 12.4968 5.48913 12.9044 6.24635 13.055C6.58363 13.1221 6.83207 13.41 6.84909 13.7535C6.86612 14.0969 6.64737 14.408 6.31837 14.5081C6.04588 14.591 5.7667 14.6488 5.48434 14.6809C5.67092 14.9214 5.8904 15.1368 6.13781 15.3203C6.699 15.7364 7.37594 15.9673 8.07445 15.9807C8.39137 15.9868 8.67023 16.1915 8.77106 16.492C8.87189 16.7925 8.7729 17.124 8.5238 17.32C7.47463 18.1455 6.26143 18.7212 4.97588 19.0151C6.04136 19.3563 7.15881 19.532 8.2891 19.5306L8.2978 19.5306C9.73786 19.5455 11.1665 19.2734 12.5002 18.7301C13.8339 18.1867 15.0459 17.3831 16.0656 16.3661C17.0852 15.3491 17.892 14.1391 18.4387 12.8067C18.6498 12.2925 18.8204 11.7641 18.9498 11.2261C19.1556 10.3704 19.257 9.49072 19.25 8.60645L19.25 8.60059V8.07059C19.25 7.88873 19.3161 7.71307 19.4359 7.5763C19.5052 7.49726 19.6264 7.3147 19.7954 7.0168C19.956 6.73368 20.1338 6.39377 20.3187 6.03459C20.3299 6.01286 20.3411 5.99103 20.3524 5.96909C19.8728 6.07324 19.3293 6.12783 18.7594 6.06624C18.579 6.04674 18.4117 5.96245 18.2887 5.82901C17.7858 5.28368 17.1161 4.92067 16.3847 4.79693C16.0602 4.74202 15.6678 4.75459 15.2747 4.82193C14.8476 4.89509 14.4759 5.0231 14.2472 5.14528C13.593 5.49485 13.0732 6.05169 12.7695 6.72848C12.4658 7.40526 12.3953 8.16371 12.5691 8.88487C12.6245 9.11478 12.5683 9.35736 12.4173 9.53939C12.2663 9.72142 12.0383 9.82158 11.8021 9.80963C10.9587 9.76697 10.1242 9.63832 9.31135 9.42705C8.45146 9.20356 7.61572 8.88761 6.81915 8.4832C5.64637 7.88779 4.57832 7.11069 3.65348 6.183C3.61129 6.39861 3.58987 6.61864 3.59001 6.84009L3.59001 6.84201C3.58897 7.39273 3.72412 7.93516 3.98343 8.42101C4.24274 8.90686 4.61816 9.32105 5.07627 9.6267C5.35429 9.8122 5.47602 10.1593 5.37477 10.4778C5.27351 10.7963 4.97372 11.0094 4.63962 11.0003C4.33702 10.9921 4.03696 10.9553 3.74329 10.891Z" fill="#14213D"/>
</svg>
